<svg width="142" height="39" viewBox="0 0 142 39" fill="none" xmlns="http://www.w3.org/2000/svg">
<g clip-path="url(#clip0_88_3)">
<rect x="2" y="4" width="51" height="31" rx="15.5" fill="white"/>
<g filter="url(#filter0_ddd_88_3)">
<rect x="24" y="6" width="27" height="27" rx="13.5" fill="black"/>
</g>
</g>
<g clip-path="url(#clip1_88_3)">
<path d="M40.3868 11C40.4217 11 40.4566 11 40.4935 11C40.5791 12.0578 40.1753 12.8482 39.6846 13.4206C39.2031 13.9891 38.5438 14.5404 37.4774 14.4567C37.4063 13.414 37.8107 12.6823 38.3007 12.1112C38.7552 11.579 39.5884 11.1054 40.3868 11Z" fill="white"/>
<path d="M43.6147 22.0105C43.6147 22.021 43.6147 22.0302 43.6147 22.0401C43.315 22.9478 42.8875 23.7257 42.3658 24.4476C41.8896 25.103 41.306 25.9849 40.264 25.9849C39.3636 25.9849 38.7655 25.406 37.8427 25.3901C36.8666 25.3743 36.3298 25.8743 35.4373 26.0001C35.3352 26.0001 35.2331 26.0001 35.1329 26.0001C34.4776 25.9052 33.9486 25.3862 33.5633 24.9185C32.4271 23.5366 31.5491 21.7516 31.3857 19.4673C31.3857 19.2434 31.3857 19.0201 31.3857 18.7962C31.4549 17.1613 32.2493 15.8321 33.3051 15.1879C33.8624 14.8454 34.6284 14.5536 35.4814 14.684C35.8469 14.7407 36.2204 14.8658 36.5478 14.9897C36.858 15.1089 37.246 15.3203 37.6135 15.3091C37.8625 15.3019 38.1102 15.1721 38.3611 15.0806C39.0962 14.8151 39.8168 14.5108 40.7666 14.6537C41.9081 14.8263 42.7182 15.3335 43.2188 16.116C42.2532 16.7305 41.4898 17.6566 41.6202 19.2381C41.7362 20.6747 42.5714 21.5152 43.6147 22.0105Z" fill="white"/>
</g>
<g clip-path="url(#clip2_88_3)">
<path d="M10.5333 15.9512H18.4666V22.4159C18.4666 22.8 18.1552 23.1113 17.7716 23.1113H16.977V25.0802C16.977 25.5802 16.5782 25.9854 16.0859 25.9854C15.5924 25.9854 15.1942 25.5802 15.1942 25.0802V23.1113H13.8064V25.0802C13.8064 25.5802 13.4068 25.9854 12.9146 25.9854C12.4224 25.9854 12.0229 25.5802 12.0229 25.0802V23.1113H11.2289C10.8453 23.1113 10.5333 22.8 10.5333 22.4159L10.5333 15.9512ZM8.9787 15.8984C8.48142 15.8984 8.07861 16.3075 8.07861 16.8125V20.3849C8.07861 20.8893 8.48142 21.299 8.9787 21.299C9.47607 21.299 9.87879 20.8893 9.87879 20.3849V16.8125C9.87879 16.3075 9.47607 15.8984 8.9787 15.8984ZM18.4666 15.2997H10.5333C10.6312 14.1695 11.3644 13.1969 12.4198 12.6338L11.6655 11.5262C11.5638 11.3769 11.6022 11.1731 11.7519 11.0714C11.9013 10.9697 12.1047 11.0084 12.2069 11.1576L13.029 12.3656C13.4848 12.208 13.9796 12.1175 14.5 12.1175C15.0209 12.1175 15.5157 12.208 15.9715 12.3658L16.7936 11.1581C16.8946 11.0084 17.0986 10.9697 17.2481 11.0714C17.3977 11.1731 17.4361 11.3769 17.3344 11.5263L16.5807 12.6338C17.6361 13.1966 18.3688 14.1692 18.4666 15.2997ZM13.2655 13.764C13.2655 13.5217 13.0693 13.3251 12.827 13.3251C12.5841 13.3251 12.3878 13.5217 12.3878 13.764C12.3878 14.0063 12.5847 14.2028 12.827 14.2028C13.0692 14.2028 13.2655 14.0063 13.2655 13.764ZM16.6677 13.764C16.6677 13.5217 16.4708 13.3251 16.2285 13.3251C15.9856 13.3251 15.79 13.5217 15.79 13.764C15.79 14.0063 15.9856 14.2028 16.2285 14.2028C16.4708 14.2028 16.6677 14.0063 16.6677 13.764ZM20.0218 15.8972C19.5251 15.8972 19.1211 16.3068 19.1211 16.8119V20.3855C19.1211 20.8905 19.5251 21.3003 20.0218 21.3003C20.5192 21.3003 20.9213 20.8905 20.9213 20.3855V16.8119C20.9213 16.3068 20.5192 15.8972 20.0218 15.8972Z" fill="#949494" stroke="#949494" stroke-width="0.125"/>
</g>
<path d="M62.72 20.676C62.784 20.676 62.836 20.72 62.876 20.808C62.924 20.888 62.948 20.972 62.948 21.06C62.948 21.124 62.936 21.18 62.912 21.228C62.888 21.276 62.844 21.3 62.78 21.3C62.596 21.3 62.432 21.296 62.288 21.288C62.152 21.28 62.004 21.276 61.844 21.276H60.404C60.26 21.276 60.1 21.28 59.924 21.288C59.748 21.288 59.612 21.296 59.516 21.312H59.492C59.428 21.312 59.376 21.272 59.336 21.192C59.296 21.104 59.276 21.016 59.276 20.928C59.276 20.76 59.336 20.676 59.456 20.676C59.576 20.684 59.716 20.692 59.876 20.7C60.044 20.7 60.224 20.7 60.416 20.7H61.856C61.992 20.7 62.124 20.7 62.252 20.7C62.388 20.692 62.54 20.684 62.708 20.676H62.72ZM69.5986 21.276H69.4546C69.3266 21.548 69.1946 21.812 69.0586 22.068C68.9306 22.324 68.8106 22.568 68.6986 22.8C68.6346 22.928 68.5546 23.104 68.4586 23.328C68.3626 23.552 68.2906 23.732 68.2426 23.868C68.2186 23.932 68.1586 23.98 68.0626 24.012C67.9666 24.052 67.8666 24.072 67.7626 24.072C67.6666 24.072 67.5826 24.056 67.5106 24.024C67.4386 23.992 67.4026 23.944 67.4026 23.88C67.4026 23.824 67.4186 23.776 67.4506 23.736C67.4826 23.688 67.5146 23.632 67.5466 23.568C67.5866 23.504 67.6466 23.4 67.7266 23.256C67.8066 23.104 67.9226 22.88 68.0746 22.584C68.2266 22.288 68.4386 21.876 68.7106 21.348C68.6866 21.348 68.6626 21.352 68.6386 21.36C68.6226 21.36 68.6066 21.36 68.5906 21.36H68.5786C68.4906 21.36 68.4066 21.3 68.3266 21.18C68.2466 21.052 68.2066 20.936 68.2066 20.832C68.2066 20.744 68.2466 20.7 68.3266 20.7H68.3506C68.4226 20.708 68.4946 20.716 68.5666 20.724C68.6386 20.724 68.7146 20.724 68.7946 20.724H69.0106C69.2906 20.172 69.5666 19.612 69.8386 19.044C70.1186 18.468 70.3746 17.928 70.6066 17.424C70.8386 16.92 71.0226 16.504 71.1586 16.176C71.1906 16.096 71.2186 15.984 71.2426 15.84C71.2666 15.688 71.3066 15.588 71.3626 15.54C71.4186 15.5 71.4786 15.48 71.5426 15.48C71.6546 15.48 71.7706 15.516 71.8906 15.588C72.0106 15.652 72.0866 15.724 72.1186 15.804C72.1346 15.828 72.1426 15.856 72.1426 15.888C72.1426 15.912 72.1426 15.936 72.1426 15.96V16.044C72.1426 16.068 72.1506 16.112 72.1666 16.176C72.3986 16.792 72.6666 17.468 72.9706 18.204C73.2826 18.932 73.6066 19.668 73.9426 20.412C74.2786 21.156 74.6026 21.856 74.9146 22.512C74.9786 22.64 75.0786 22.824 75.2146 23.064C75.3506 23.304 75.4826 23.516 75.6106 23.7C75.6266 23.724 75.6386 23.748 75.6466 23.772C75.6546 23.788 75.6586 23.804 75.6586 23.82C75.6586 23.9 75.5986 23.964 75.4786 24.012C75.3666 24.06 75.2506 24.084 75.1306 24.084C75.0506 24.084 74.9786 24.072 74.9146 24.048C74.8506 24.032 74.8106 24 74.7946 23.952C74.7466 23.808 74.6746 23.62 74.5786 23.388C74.4906 23.148 74.4146 22.956 74.3506 22.812C74.2306 22.556 74.1066 22.284 73.9786 21.996C73.8506 21.708 73.7186 21.416 73.5826 21.12L69.5986 21.276ZM71.6626 16.56C71.5426 16.856 71.3786 17.228 71.1706 17.676C70.9626 18.124 70.7346 18.612 70.4866 19.14C70.2386 19.66 69.9866 20.184 69.7306 20.712C69.7306 20.712 69.8146 20.708 69.9826 20.7C70.1586 20.692 70.3826 20.684 70.6546 20.676C70.9346 20.66 71.2266 20.648 71.5306 20.64C71.8346 20.624 72.1226 20.612 72.3946 20.604C72.6746 20.588 72.8986 20.576 73.0666 20.568C73.2426 20.56 73.3306 20.556 73.3306 20.556C73.1066 20.036 72.8866 19.524 72.6706 19.02C72.4546 18.508 72.2586 18.04 72.0826 17.616C71.9066 17.192 71.7666 16.84 71.6626 16.56ZM80.8358 22.416C80.4758 23.032 80.0838 23.484 79.6598 23.772C79.2358 24.052 78.7878 24.192 78.3158 24.192C77.7398 24.192 77.2718 23.984 76.9118 23.568C76.5518 23.144 76.3718 22.544 76.3718 21.768C76.3718 21.296 76.4518 20.848 76.6118 20.424C76.7718 19.992 76.9918 19.608 77.2718 19.272C77.5518 18.936 77.8678 18.672 78.2198 18.48C78.5798 18.288 78.9518 18.192 79.3358 18.192C79.6398 18.192 79.9198 18.256 80.1758 18.384C80.4398 18.504 80.6478 18.704 80.7998 18.984V16.884C80.7998 16.636 80.7958 16.396 80.7878 16.164C80.7798 15.932 80.7758 15.748 80.7758 15.612C80.7758 15.54 80.8358 15.504 80.9558 15.504C81.0598 15.504 81.1718 15.536 81.2918 15.6C81.4118 15.656 81.4718 15.732 81.4718 15.828C81.4718 15.924 81.4678 16.076 81.4598 16.284C81.4518 16.484 81.4478 16.688 81.4478 16.896V21.78C81.4478 22.132 81.4838 22.476 81.5558 22.812C81.6278 23.14 81.7278 23.384 81.8558 23.544C81.8718 23.56 81.8798 23.592 81.8798 23.64C81.8798 23.728 81.8358 23.832 81.7478 23.952C81.6598 24.064 81.5638 24.12 81.4598 24.12C81.3718 24.12 81.2798 24.036 81.1838 23.868C81.0878 23.7 81.0038 23.492 80.9318 23.244C80.8678 22.988 80.8358 22.728 80.8358 22.464V22.416ZM80.7998 19.392C80.7598 19.456 80.6998 19.488 80.6198 19.488C80.5718 19.488 80.5358 19.468 80.5118 19.428C80.3598 19.188 80.1798 19.02 79.9718 18.924C79.7718 18.82 79.5638 18.768 79.3478 18.768C79.0198 18.768 78.7158 18.856 78.4358 19.032C78.1558 19.208 77.9118 19.44 77.7038 19.728C77.4958 20.016 77.3318 20.336 77.2118 20.688C77.0998 21.032 77.0438 21.38 77.0438 21.732C77.0438 22.364 77.1678 22.832 77.4158 23.136C77.6718 23.44 77.9718 23.592 78.3158 23.592C78.5958 23.592 78.8798 23.516 79.1678 23.364C79.4558 23.204 79.7238 22.988 79.9718 22.716C80.2198 22.444 80.4198 22.136 80.5718 21.792C80.7238 21.44 80.7998 21.072 80.7998 20.688V19.392ZM90.5941 20.484C90.5941 19.996 90.4941 19.592 90.2941 19.272C90.1021 18.952 89.8261 18.792 89.4661 18.792C89.2181 18.792 88.9621 18.884 88.6981 19.068C88.4421 19.252 88.2221 19.496 88.0381 19.8C87.8621 20.096 87.7741 20.424 87.7741 20.784V22.74C87.7741 22.964 87.7781 23.2 87.7861 23.448C87.8021 23.688 87.8101 23.876 87.8101 24.012C87.8101 24.084 87.7501 24.12 87.6301 24.12C87.5261 24.12 87.4141 24.088 87.2941 24.024C87.1741 23.968 87.1141 23.892 87.1141 23.796C87.1141 23.732 87.1141 23.636 87.1141 23.508C87.1221 23.372 87.1261 23.232 87.1261 23.088C87.1341 22.944 87.1381 22.828 87.1381 22.74V20.484C87.1381 20.012 87.0701 19.612 86.9341 19.284C86.8061 18.956 86.5581 18.792 86.1901 18.792C86.0381 18.792 85.8541 18.832 85.6381 18.912C85.4301 18.992 85.2261 19.144 85.0261 19.368C84.8261 19.592 84.6621 19.92 84.5341 20.352C84.4381 20.68 84.3821 21.06 84.3661 21.492C84.3581 21.916 84.3501 22.332 84.3421 22.74C84.3421 22.988 84.3461 23.228 84.3541 23.46C84.3701 23.692 84.3781 23.876 84.3781 24.012C84.3781 24.084 84.3181 24.12 84.1981 24.12C84.0941 24.12 83.9781 24.088 83.8501 24.024C83.7301 23.968 83.6701 23.892 83.6701 23.796C83.6701 23.732 83.6701 23.628 83.6701 23.484C83.6781 23.332 83.6821 23.184 83.6821 23.04C83.6901 22.896 83.6941 22.796 83.6941 22.74V19.728C83.6941 19.648 83.6901 19.516 83.6821 19.332C83.6741 19.148 83.6661 18.96 83.6581 18.768C83.6581 18.568 83.6581 18.424 83.6581 18.336C83.6581 18.264 83.7181 18.228 83.8381 18.228C83.9501 18.228 84.0661 18.26 84.1861 18.324C84.3061 18.38 84.3661 18.456 84.3661 18.552C84.3661 18.648 84.3621 18.784 84.3541 18.96C84.3541 19.128 84.3541 19.304 84.3541 19.488C84.5141 19.088 84.7661 18.772 85.1101 18.54C85.4621 18.308 85.8221 18.192 86.1901 18.192C86.6541 18.192 86.9981 18.312 87.2221 18.552C87.4541 18.784 87.5981 19.052 87.6541 19.356C87.8541 18.98 88.1221 18.692 88.4581 18.492C88.8021 18.292 89.1501 18.192 89.5021 18.192C89.9181 18.192 90.2501 18.304 90.4981 18.528C90.7541 18.744 90.9421 19.024 91.0621 19.368C91.1821 19.704 91.2421 20.06 91.2421 20.436V22.74C91.2421 22.788 91.2421 22.896 91.2421 23.064C91.2501 23.232 91.2581 23.408 91.2661 23.592C91.2741 23.776 91.2781 23.916 91.2781 24.012C91.2781 24.084 91.2181 24.12 91.0981 24.12C90.9941 24.12 90.8781 24.088 90.7501 24.024C90.6301 23.968 90.5701 23.892 90.5701 23.796C90.5701 23.732 90.5701 23.636 90.5701 23.508C90.5781 23.372 90.5821 23.232 90.5821 23.088C90.5901 22.944 90.5941 22.828 90.5941 22.74V20.484ZM94.007 16.776C93.855 16.776 93.719 16.708 93.599 16.572C93.487 16.428 93.431 16.284 93.431 16.14C93.431 15.988 93.467 15.868 93.539 15.78C93.619 15.692 93.735 15.648 93.887 15.648C94.023 15.648 94.151 15.72 94.271 15.864C94.391 16 94.451 16.148 94.451 16.308C94.451 16.62 94.303 16.776 94.007 16.776ZM93.623 19.584C93.623 19.504 93.619 19.38 93.611 19.212C93.603 19.044 93.595 18.872 93.587 18.696C93.587 18.52 93.587 18.388 93.587 18.3C93.587 18.236 93.647 18.204 93.767 18.204C93.879 18.204 93.995 18.236 94.115 18.3C94.243 18.356 94.307 18.428 94.307 18.516C94.307 18.58 94.303 18.68 94.295 18.816C94.295 18.944 94.291 19.08 94.283 19.224C94.283 19.368 94.283 19.488 94.283 19.584V22.74C94.283 22.788 94.287 22.896 94.295 23.064C94.303 23.232 94.307 23.408 94.307 23.592C94.315 23.776 94.319 23.916 94.319 24.012C94.319 24.076 94.259 24.108 94.139 24.108C94.035 24.108 93.919 24.076 93.791 24.012C93.663 23.956 93.599 23.884 93.599 23.796C93.599 23.732 93.599 23.628 93.599 23.484C93.607 23.332 93.611 23.184 93.611 23.04C93.619 22.896 93.623 22.796 93.623 22.74V19.584ZM100.807 20.472C100.807 20.152 100.775 19.868 100.711 19.62C100.655 19.372 100.547 19.176 100.387 19.032C100.235 18.888 100.007 18.816 99.7033 18.816C99.4233 18.816 99.1353 18.876 98.8393 18.996C98.5433 19.116 98.2753 19.304 98.0353 19.56C97.7953 19.808 97.6153 20.136 97.4953 20.544C97.3993 20.864 97.3433 21.224 97.3273 21.624C97.3193 22.016 97.3113 22.388 97.3033 22.74V22.908C97.3033 23.132 97.3073 23.344 97.3153 23.544C97.3313 23.736 97.3393 23.892 97.3393 24.012C97.3393 24.084 97.2793 24.12 97.1593 24.12C97.0553 24.12 96.9393 24.088 96.8113 24.024C96.6913 23.968 96.6313 23.892 96.6313 23.796C96.6313 23.732 96.6313 23.628 96.6313 23.484C96.6393 23.332 96.6433 23.184 96.6433 23.04C96.6513 22.896 96.6553 22.796 96.6553 22.74V19.62C96.6553 19.54 96.6513 19.416 96.6433 19.248C96.6353 19.08 96.6273 18.908 96.6193 18.732C96.6193 18.556 96.6193 18.424 96.6193 18.336C96.6193 18.264 96.6793 18.228 96.7993 18.228C96.9113 18.228 97.0273 18.26 97.1473 18.324C97.2673 18.38 97.3273 18.456 97.3273 18.552C97.3273 18.616 97.3273 18.72 97.3273 18.864C97.3273 19 97.3233 19.144 97.3153 19.296C97.3153 19.448 97.3153 19.58 97.3153 19.692C97.4753 19.364 97.6833 19.092 97.9393 18.876C98.2033 18.652 98.4873 18.484 98.7913 18.372C99.1033 18.252 99.4073 18.192 99.7033 18.192C100.087 18.192 100.395 18.264 100.627 18.408C100.859 18.544 101.035 18.724 101.155 18.948C101.275 19.172 101.355 19.416 101.395 19.68C101.435 19.936 101.455 20.184 101.455 20.424V22.74C101.455 22.788 101.459 22.896 101.467 23.064C101.475 23.232 101.479 23.408 101.479 23.592C101.487 23.776 101.491 23.916 101.491 24.012C101.491 24.084 101.431 24.12 101.311 24.12C101.207 24.12 101.091 24.088 100.963 24.024C100.843 23.968 100.783 23.892 100.783 23.796C100.783 23.732 100.783 23.636 100.783 23.508C100.791 23.372 100.795 23.232 100.795 23.088C100.803 22.944 100.807 22.828 100.807 22.74V20.472ZM108.073 16.56H108.037C107.933 16.56 107.833 16.5 107.737 16.38C107.649 16.26 107.605 16.148 107.605 16.044C107.605 15.948 107.645 15.896 107.725 15.888C107.885 15.856 108.049 15.82 108.217 15.78C108.393 15.74 108.629 15.692 108.925 15.636C109.061 15.612 109.273 15.584 109.561 15.552C109.849 15.512 110.201 15.492 110.617 15.492C111.657 15.492 112.421 15.664 112.909 16.008C113.405 16.352 113.653 16.828 113.653 17.436C113.653 18.14 113.433 18.696 112.993 19.104C112.561 19.512 111.977 19.792 111.241 19.944C111.089 19.976 110.897 20.008 110.665 20.04C110.433 20.064 110.193 20.088 109.945 20.112C109.705 20.128 109.481 20.136 109.273 20.136C109.145 20.136 109.037 20.132 108.949 20.124C108.861 20.116 108.801 20.092 108.769 20.052V22.62C108.769 22.892 108.773 23.16 108.781 23.424C108.797 23.68 108.805 23.876 108.805 24.012C108.805 24.092 108.737 24.132 108.601 24.132C108.489 24.132 108.369 24.1 108.241 24.036C108.113 23.98 108.049 23.9 108.049 23.796C108.049 23.7 108.053 23.536 108.061 23.304C108.069 23.072 108.073 22.84 108.073 22.608V16.56ZM108.769 19.752C108.809 19.696 108.869 19.668 108.949 19.668C109.141 19.652 109.365 19.628 109.621 19.596C109.885 19.564 110.137 19.528 110.377 19.488C110.625 19.448 110.817 19.412 110.953 19.38C111.577 19.236 112.061 19.012 112.405 18.708C112.757 18.404 112.933 18.004 112.933 17.508C112.933 16.988 112.721 16.628 112.297 16.428C111.873 16.228 111.305 16.128 110.593 16.128C110.305 16.128 109.993 16.152 109.657 16.2C109.329 16.24 109.033 16.296 108.769 16.368V19.752ZM119.336 18.516C119.312 18.692 119.288 18.928 119.264 19.224C119.248 19.512 119.232 19.82 119.216 20.148C119.208 20.468 119.2 20.768 119.192 21.048C119.184 21.328 119.18 21.54 119.18 21.684C119.18 21.788 119.184 21.952 119.192 22.176C119.208 22.392 119.244 22.628 119.3 22.884C119.364 23.14 119.464 23.376 119.6 23.592C119.616 23.624 119.624 23.652 119.624 23.676C119.624 23.764 119.58 23.864 119.492 23.976C119.412 24.08 119.316 24.132 119.204 24.132C119.124 24.132 119.044 24.076 118.964 23.964C118.892 23.844 118.824 23.696 118.76 23.52C118.704 23.336 118.656 23.152 118.616 22.968C118.576 22.784 118.552 22.624 118.544 22.488C118.256 23.072 117.888 23.504 117.44 23.784C117 24.056 116.552 24.192 116.096 24.192C115.52 24.192 115.056 24 114.704 23.616C114.36 23.224 114.188 22.652 114.188 21.9C114.188 21.396 114.272 20.92 114.44 20.472C114.616 20.024 114.844 19.628 115.124 19.284C115.412 18.94 115.728 18.672 116.072 18.48C116.424 18.288 116.776 18.192 117.128 18.192C117.424 18.192 117.704 18.264 117.968 18.408C118.24 18.552 118.44 18.776 118.568 19.08C118.576 18.896 118.58 18.736 118.58 18.6C118.588 18.456 118.592 18.356 118.592 18.3C118.592 18.228 118.66 18.192 118.796 18.192C118.908 18.192 119.024 18.22 119.144 18.276C119.272 18.332 119.336 18.404 119.336 18.492V18.516ZM118.568 19.368C118.552 19.4 118.52 19.428 118.472 19.452C118.432 19.476 118.392 19.488 118.352 19.488C118.304 19.488 118.268 19.472 118.244 19.44C118.092 19.208 117.916 19.04 117.716 18.936C117.516 18.824 117.324 18.768 117.14 18.768C116.876 18.768 116.608 18.848 116.336 19.008C116.072 19.16 115.828 19.376 115.604 19.656C115.38 19.936 115.2 20.264 115.064 20.64C114.936 21.008 114.872 21.408 114.872 21.84C114.872 22.456 114.988 22.904 115.22 23.184C115.452 23.456 115.744 23.592 116.096 23.592C116.496 23.592 116.876 23.464 117.236 23.208C117.604 22.952 117.908 22.592 118.148 22.128C118.388 21.664 118.52 21.124 118.544 20.508C118.552 20.388 118.556 20.22 118.556 20.004C118.556 19.78 118.56 19.568 118.568 19.368ZM125.675 20.472C125.675 20.152 125.643 19.868 125.579 19.62C125.523 19.372 125.415 19.176 125.255 19.032C125.103 18.888 124.875 18.816 124.571 18.816C124.291 18.816 124.003 18.876 123.707 18.996C123.411 19.116 123.143 19.304 122.903 19.56C122.663 19.808 122.483 20.136 122.363 20.544C122.267 20.864 122.211 21.224 122.195 21.624C122.187 22.016 122.179 22.388 122.171 22.74V22.908C122.171 23.132 122.175 23.344 122.183 23.544C122.199 23.736 122.207 23.892 122.207 24.012C122.207 24.084 122.147 24.12 122.027 24.12C121.923 24.12 121.807 24.088 121.679 24.024C121.559 23.968 121.499 23.892 121.499 23.796C121.499 23.732 121.499 23.628 121.499 23.484C121.507 23.332 121.511 23.184 121.511 23.04C121.519 22.896 121.523 22.796 121.523 22.74V19.62C121.523 19.54 121.519 19.416 121.511 19.248C121.503 19.08 121.495 18.908 121.487 18.732C121.487 18.556 121.487 18.424 121.487 18.336C121.487 18.264 121.547 18.228 121.667 18.228C121.779 18.228 121.895 18.26 122.015 18.324C122.135 18.38 122.195 18.456 122.195 18.552C122.195 18.616 122.195 18.72 122.195 18.864C122.195 19 122.191 19.144 122.183 19.296C122.183 19.448 122.183 19.58 122.183 19.692C122.343 19.364 122.551 19.092 122.807 18.876C123.071 18.652 123.355 18.484 123.659 18.372C123.971 18.252 124.275 18.192 124.571 18.192C124.955 18.192 125.263 18.264 125.495 18.408C125.727 18.544 125.903 18.724 126.023 18.948C126.143 19.172 126.223 19.416 126.263 19.68C126.303 19.936 126.323 20.184 126.323 20.424V22.74C126.323 22.788 126.327 22.896 126.335 23.064C126.343 23.232 126.347 23.408 126.347 23.592C126.355 23.776 126.359 23.916 126.359 24.012C126.359 24.084 126.299 24.12 126.179 24.12C126.075 24.12 125.959 24.088 125.831 24.024C125.711 23.968 125.651 23.892 125.651 23.796C125.651 23.732 125.651 23.636 125.651 23.508C125.659 23.372 125.663 23.232 125.663 23.088C125.671 22.944 125.675 22.828 125.675 22.74V20.472ZM128.865 21.588V21.624C128.865 22.28 129.013 22.772 129.309 23.1C129.613 23.428 129.969 23.592 130.377 23.592C130.897 23.592 131.369 23.5 131.793 23.316C132.225 23.124 132.601 22.856 132.921 22.512C133.017 22.408 133.101 22.356 133.173 22.356C133.237 22.356 133.269 22.396 133.269 22.476C133.269 22.548 133.209 22.676 133.089 22.86C132.969 23.044 132.789 23.24 132.549 23.448C132.317 23.648 132.017 23.824 131.649 23.976C131.289 24.12 130.865 24.192 130.377 24.192C129.969 24.192 129.601 24.092 129.273 23.892C128.953 23.684 128.697 23.392 128.505 23.016C128.313 22.632 128.217 22.18 128.217 21.66V21.48C128.049 21.368 127.965 21.248 127.965 21.12C127.965 21.024 128.033 20.976 128.169 20.976C128.185 20.976 128.209 20.976 128.241 20.976C128.281 20.968 128.301 20.964 128.301 20.964C128.349 20.676 128.457 20.372 128.625 20.052C128.801 19.732 129.021 19.432 129.285 19.152C129.549 18.872 129.849 18.644 130.185 18.468C130.521 18.284 130.885 18.192 131.277 18.192C131.765 18.192 132.153 18.276 132.441 18.444C132.729 18.612 132.933 18.828 133.053 19.092C133.181 19.356 133.245 19.632 133.245 19.92C133.245 20.152 133.217 20.344 133.161 20.496C133.105 20.648 132.993 20.78 132.825 20.892C132.665 20.996 132.425 21.1 132.105 21.204C131.745 21.308 131.305 21.4 130.785 21.48C130.265 21.552 129.673 21.588 129.009 21.588H128.865ZM129.201 21C129.809 21 130.325 20.968 130.749 20.904C131.181 20.84 131.533 20.768 131.805 20.688C132.053 20.616 132.229 20.548 132.333 20.484C132.445 20.42 132.517 20.344 132.549 20.256C132.581 20.168 132.597 20.052 132.597 19.908C132.597 19.556 132.481 19.28 132.249 19.08C132.017 18.872 131.689 18.768 131.265 18.768C130.969 18.768 130.689 18.844 130.425 18.996C130.161 19.14 129.925 19.328 129.717 19.56C129.517 19.792 129.349 20.036 129.213 20.292C129.077 20.548 128.989 20.784 128.949 21H129.201ZM135.213 16.92C135.213 16.84 135.209 16.716 135.201 16.548C135.193 16.38 135.185 16.208 135.177 16.032C135.177 15.856 135.177 15.724 135.177 15.636C135.177 15.564 135.241 15.528 135.369 15.528C135.473 15.528 135.585 15.56 135.705 15.624C135.833 15.68 135.897 15.756 135.897 15.852C135.897 15.916 135.893 16.016 135.885 16.152C135.885 16.28 135.881 16.416 135.873 16.56C135.873 16.704 135.873 16.824 135.873 16.92V22.74C135.873 22.788 135.877 22.896 135.885 23.064C135.893 23.232 135.897 23.408 135.897 23.592C135.905 23.776 135.909 23.916 135.909 24.012C135.909 24.084 135.845 24.12 135.717 24.12C135.613 24.12 135.497 24.088 135.369 24.024C135.249 23.968 135.189 23.892 135.189 23.796C135.189 23.732 135.189 23.628 135.189 23.484C135.197 23.332 135.201 23.184 135.201 23.04C135.209 22.896 135.213 22.796 135.213 22.74V16.92Z" fill="white"/>
<defs>
<filter id="filter0_ddd_88_3" x="16" y="1" width="43" height="43" filterUnits="userSpaceOnUse" color-interpolation-filters="sRGB">
<feFlood flood-opacity="0" result="BackgroundImageFix"/>
<feColorMatrix in="SourceAlpha" type="matrix" values="0 0 0 0 0 0 0 0 0 0 0 0 0 0 0 0 0 0 127 0" result="hardAlpha"/>
<feOffset dy="3"/>
<feGaussianBlur stdDeviation="0.5"/>
<feComposite in2="hardAlpha" operator="out"/>
<feColorMatrix type="matrix" values="0 0 0 0 0 0 0 0 0 0 0 0 0 0 0 0 0 0 0.06 0"/>
<feBlend mode="normal" in2="BackgroundImageFix" result="effect1_dropShadow_88_3"/>
<feColorMatrix in="SourceAlpha" type="matrix" values="0 0 0 0 0 0 0 0 0 0 0 0 0 0 0 0 0 0 127 0" result="hardAlpha"/>
<feOffset dy="3"/>
<feGaussianBlur stdDeviation="4"/>
<feComposite in2="hardAlpha" operator="out"/>
<feColorMatrix type="matrix" values="0 0 0 0 0 0 0 0 0 0 0 0 0 0 0 0 0 0 0.15 0"/>
<feBlend mode="normal" in2="effect1_dropShadow_88_3" result="effect2_dropShadow_88_3"/>
<feColorMatrix in="SourceAlpha" type="matrix" values="0 0 0 0 0 0 0 0 0 0 0 0 0 0 0 0 0 0 127 0" result="hardAlpha"/>
<feMorphology radius="1" operator="dilate" in="SourceAlpha" result="effect3_dropShadow_88_3"/>
<feOffset/>
<feComposite in2="hardAlpha" operator="out"/>
<feColorMatrix type="matrix" values="0 0 0 0 0 0 0 0 0 0 0 0 0 0 0 0 0 0 0.04 0"/>
<feBlend mode="normal" in2="effect2_dropShadow_88_3" result="effect3_dropShadow_88_3"/>
<feBlend mode="normal" in="SourceGraphic" in2="effect3_dropShadow_88_3" result="shape"/>
</filter>
<clipPath id="clip0_88_3">
<rect x="2" y="4" width="51" height="31" rx="15.5" fill="white"/>
</clipPath>
<clipPath id="clip1_88_3">
<rect width="15" height="15" fill="white" transform="translate(30 11)"/>
</clipPath>
<clipPath id="clip2_88_3">
<rect width="15" height="15" fill="white" transform="translate(7 11)"/>
</clipPath>
</defs>
</svg>
