<svg width="118" height="39" viewBox="0 0 118 39" fill="none" xmlns="http://www.w3.org/2000/svg">
<g clip-path="url(#clip0_78_4)">
<g clip-path="url(#clip1_78_4)">
<rect x="32" y="4" width="51" height="31" rx="15.5" fill="white"/>
<g filter="url(#filter0_ddd_78_4)">
<rect x="54" y="6" width="27" height="27" rx="13.5" fill="black"/>
</g>
</g>
<path d="M2.096 16.32H2.084C2.044 16.32 1.944 16.324 1.784 16.332C1.624 16.34 1.448 16.352 1.256 16.368C1.072 16.376 0.912 16.384 0.776 16.392C0.64 16.4 0.572 16.404 0.572 16.404C0.372 16.412 0.176 16.432 -0.016 16.464C-0.2 16.488 -0.336 16.504 -0.424 16.512H-0.436C-0.54 16.512 -0.628 16.452 -0.7 16.332C-0.772 16.204 -0.808 16.088 -0.808 15.984C-0.808 15.864 -0.764 15.804 -0.676 15.804C-0.612 15.804 -0.5 15.808 -0.34 15.816C-0.18 15.824 -0.00799996 15.828 0.176 15.828C0.24 15.828 0.304 15.828 0.368 15.828C0.44 15.82 0.504 15.816 0.56 15.816L4.304 15.6C4.488 15.584 4.676 15.568 4.868 15.552C5.06 15.536 5.204 15.52 5.3 15.504H5.336C5.432 15.504 5.512 15.564 5.576 15.684C5.648 15.804 5.684 15.92 5.684 16.032C5.684 16.152 5.64 16.212 5.552 16.212C5.472 16.212 5.34 16.208 5.156 16.2C4.972 16.184 4.784 16.176 4.592 16.176C4.544 16.176 4.496 16.18 4.448 16.188C4.4 16.188 4.356 16.188 4.316 16.188L2.792 16.272V22.728C2.792 22.976 2.796 23.216 2.804 23.448C2.82 23.68 2.828 23.864 2.828 24C2.828 24.04 2.808 24.068 2.768 24.084C2.728 24.108 2.68 24.12 2.624 24.12C2.512 24.12 2.392 24.088 2.264 24.024C2.136 23.968 2.072 23.888 2.072 23.784C2.072 23.688 2.076 23.54 2.084 23.34C2.092 23.132 2.096 22.924 2.096 22.716V16.32ZM6.86131 21.588V21.624C6.86131 22.28 7.00931 22.772 7.30531 23.1C7.60931 23.428 7.96531 23.592 8.37331 23.592C8.89331 23.592 9.36531 23.5 9.78931 23.316C10.2213 23.124 10.5973 22.856 10.9173 22.512C11.0133 22.408 11.0973 22.356 11.1693 22.356C11.2333 22.356 11.2653 22.396 11.2653 22.476C11.2653 22.548 11.2053 22.676 11.0853 22.86C10.9653 23.044 10.7853 23.24 10.5453 23.448C10.3133 23.648 10.0133 23.824 9.64531 23.976C9.28531 24.12 8.86131 24.192 8.37331 24.192C7.96531 24.192 7.59731 24.092 7.26931 23.892C6.94931 23.684 6.69331 23.392 6.50131 23.016C6.30931 22.632 6.21331 22.18 6.21331 21.66V21.48C6.04531 21.368 5.96131 21.248 5.96131 21.12C5.96131 21.024 6.02931 20.976 6.16531 20.976C6.18131 20.976 6.20531 20.976 6.23731 20.976C6.27731 20.968 6.29731 20.964 6.29731 20.964C6.34531 20.676 6.45331 20.372 6.62131 20.052C6.79731 19.732 7.01731 19.432 7.28131 19.152C7.54531 18.872 7.84531 18.644 8.18131 18.468C8.51731 18.284 8.88131 18.192 9.27331 18.192C9.76131 18.192 10.1493 18.276 10.4373 18.444C10.7253 18.612 10.9293 18.828 11.0493 19.092C11.1773 19.356 11.2413 19.632 11.2413 19.92C11.2413 20.152 11.2133 20.344 11.1573 20.496C11.1013 20.648 10.9893 20.78 10.8213 20.892C10.6613 20.996 10.4213 21.1 10.1013 21.204C9.74131 21.308 9.30131 21.4 8.78131 21.48C8.26131 21.552 7.66931 21.588 7.00531 21.588H6.86131ZM7.19731 21C7.80531 21 8.32131 20.968 8.74531 20.904C9.17731 20.84 9.52931 20.768 9.80131 20.688C10.0493 20.616 10.2253 20.548 10.3293 20.484C10.4413 20.42 10.5133 20.344 10.5453 20.256C10.5773 20.168 10.5933 20.052 10.5933 19.908C10.5933 19.556 10.4773 19.28 10.2453 19.08C10.0133 18.872 9.68531 18.768 9.26131 18.768C8.96531 18.768 8.68531 18.844 8.42131 18.996C8.15731 19.14 7.92131 19.328 7.71331 19.56C7.51331 19.792 7.34531 20.036 7.20931 20.292C7.07331 20.548 6.98531 20.784 6.94531 21H7.19731ZM17.7569 22.296C17.7569 22.36 17.6969 22.492 17.5769 22.692C17.4649 22.892 17.2929 23.108 17.0609 23.34C16.8289 23.572 16.5369 23.772 16.1849 23.94C15.8409 24.108 15.4329 24.192 14.9609 24.192C14.5449 24.192 14.1609 24.096 13.8089 23.904C13.4649 23.712 13.1849 23.428 12.9689 23.052C12.7609 22.676 12.6569 22.216 12.6569 21.672C12.6569 21.192 12.7449 20.744 12.9209 20.328C13.0969 19.904 13.3329 19.532 13.6289 19.212C13.9249 18.892 14.2529 18.644 14.6129 18.468C14.9809 18.284 15.3489 18.192 15.7169 18.192C16.0529 18.192 16.3289 18.24 16.5449 18.336C16.7689 18.432 16.9449 18.544 17.0729 18.672C17.2009 18.792 17.2929 18.904 17.3489 19.008C17.4049 19.112 17.4329 19.176 17.4329 19.2C17.4329 19.312 17.3849 19.416 17.2889 19.512C17.2009 19.608 17.1129 19.656 17.0249 19.656C16.9769 19.656 16.9409 19.636 16.9169 19.596C16.7809 19.34 16.6209 19.144 16.4369 19.008C16.2529 18.864 16.0209 18.792 15.7409 18.792C15.4529 18.792 15.1649 18.868 14.8769 19.02C14.5969 19.172 14.3369 19.38 14.0969 19.644C13.8649 19.9 13.6769 20.2 13.5329 20.544C13.3969 20.88 13.3289 21.236 13.3289 21.612C13.3289 22.068 13.4089 22.444 13.5689 22.74C13.7369 23.028 13.9449 23.244 14.1929 23.388C14.4489 23.524 14.7049 23.592 14.9609 23.592C15.3449 23.592 15.6849 23.528 15.9809 23.4C16.2769 23.264 16.5409 23.1 16.7729 22.908C17.0129 22.716 17.2249 22.524 17.4089 22.332C17.5129 22.228 17.5969 22.176 17.6609 22.176C17.7249 22.176 17.7569 22.216 17.7569 22.296ZM23.5802 23.796C23.5882 23.732 23.5922 23.624 23.5922 23.472C23.5922 23.32 23.5922 23.164 23.5922 23.004C23.6002 22.836 23.6042 22.708 23.6042 22.62V20.484C23.6042 20.164 23.5762 19.88 23.5202 19.632C23.4642 19.384 23.3562 19.188 23.1962 19.044C23.0442 18.9 22.8122 18.828 22.5002 18.828C22.2202 18.828 21.9322 18.888 21.6362 19.008C21.3402 19.128 21.0722 19.316 20.8322 19.572C20.5922 19.82 20.4122 20.148 20.2922 20.556C20.2362 20.756 20.1922 20.992 20.1602 21.264C20.1362 21.536 20.1202 21.804 20.1122 22.068C20.1122 22.324 20.1082 22.548 20.1002 22.74V22.932C20.1002 23.124 20.1042 23.312 20.1122 23.496C20.1202 23.68 20.1282 23.852 20.1362 24.012C20.1362 24.084 20.0762 24.12 19.9562 24.12C19.8522 24.12 19.7362 24.088 19.6082 24.024C19.4882 23.968 19.4282 23.892 19.4282 23.796C19.4282 23.732 19.4282 23.616 19.4282 23.448C19.4362 23.28 19.4402 23.116 19.4402 22.956C19.4482 22.788 19.4522 22.676 19.4522 22.62V16.92C19.4522 16.84 19.4482 16.716 19.4402 16.548C19.4322 16.38 19.4242 16.208 19.4162 16.032C19.4162 15.856 19.4162 15.724 19.4162 15.636C19.4162 15.564 19.4762 15.528 19.5962 15.528C19.7082 15.528 19.8242 15.56 19.9442 15.624C20.0642 15.68 20.1242 15.756 20.1242 15.852C20.1242 15.916 20.1202 16.024 20.1122 16.176C20.1122 16.328 20.1082 16.488 20.1002 16.656C20.1002 16.816 20.1002 16.944 20.1002 17.04V19.704C20.2602 19.376 20.4722 19.104 20.7362 18.888C21.0002 18.664 21.2842 18.496 21.5882 18.384C21.9002 18.264 22.2042 18.204 22.5002 18.204C22.8842 18.204 23.1922 18.276 23.4242 18.42C23.6562 18.556 23.8322 18.736 23.9522 18.96C24.0722 19.184 24.1522 19.428 24.1922 19.692C24.2322 19.948 24.2522 20.196 24.2522 20.436V22.74C24.2522 22.788 24.2562 22.896 24.2642 23.064C24.2722 23.232 24.2762 23.408 24.2762 23.592C24.2842 23.776 24.2882 23.916 24.2882 24.012C24.2882 24.084 24.2242 24.12 24.0962 24.12C23.9922 24.12 23.8802 24.088 23.7602 24.024C23.6402 23.968 23.5802 23.896 23.5802 23.808V23.796Z" fill="white"/>
<g clip-path="url(#clip2_78_4)">
<path d="M70.3868 11C70.4217 11 70.4566 11 70.4935 11C70.5791 12.0578 70.1753 12.8482 69.6846 13.4206C69.2031 13.9891 68.5438 14.5404 67.4774 14.4567C67.4063 13.414 67.8107 12.6823 68.3007 12.1112C68.7552 11.579 69.5884 11.1054 70.3868 11Z" fill="white"/>
<path d="M73.6147 22.0105C73.6147 22.021 73.6147 22.0302 73.6147 22.0401C73.315 22.9478 72.8875 23.7257 72.3658 24.4476C71.8896 25.103 71.306 25.9849 70.264 25.9849C69.3636 25.9849 68.7655 25.406 67.8427 25.3901C66.8666 25.3743 66.3298 25.8743 65.4373 26.0001C65.3352 26.0001 65.2331 26.0001 65.1329 26.0001C64.4776 25.9052 63.9486 25.3862 63.5633 24.9185C62.4271 23.5366 61.5491 21.7516 61.3857 19.4673C61.3857 19.2434 61.3857 19.0201 61.3857 18.7962C61.4549 17.1613 62.2493 15.8321 63.3051 15.1879C63.8624 14.8454 64.6284 14.5536 65.4814 14.684C65.8469 14.7407 66.2204 14.8658 66.5478 14.9897C66.858 15.1089 67.246 15.3203 67.6135 15.3091C67.8625 15.3019 68.1102 15.1721 68.3611 15.0806C69.0962 14.8151 69.8168 14.5108 70.7666 14.6537C71.9081 14.8263 72.7182 15.3335 73.2188 16.116C72.2532 16.7305 71.4898 17.6566 71.6202 19.2381C71.7362 20.6747 72.5714 21.5152 73.6147 22.0105Z" fill="white"/>
</g>
<g clip-path="url(#clip3_78_4)">
<path d="M40.5333 15.9512H48.4666V22.4159C48.4666 22.8 48.1552 23.1113 47.7716 23.1113H46.977V25.0802C46.977 25.5802 46.5782 25.9854 46.0859 25.9854C45.5924 25.9854 45.1942 25.5802 45.1942 25.0802V23.1113H43.8064V25.0802C43.8064 25.5802 43.4068 25.9854 42.9146 25.9854C42.4224 25.9854 42.0229 25.5802 42.0229 25.0802V23.1113H41.2289C40.8453 23.1113 40.5333 22.8 40.5333 22.4159L40.5333 15.9512ZM38.9787 15.8984C38.4814 15.8984 38.0786 16.3075 38.0786 16.8125V20.3849C38.0786 20.8893 38.4814 21.299 38.9787 21.299C39.4761 21.299 39.8788 20.8893 39.8788 20.3849V16.8125C39.8788 16.3075 39.4761 15.8984 38.9787 15.8984ZM48.4666 15.2997H40.5333C40.6312 14.1695 41.3644 13.1969 42.4198 12.6338L41.6655 11.5262C41.5638 11.3769 41.6022 11.1731 41.7519 11.0714C41.9013 10.9697 42.1047 11.0084 42.2069 11.1576L43.029 12.3656C43.4848 12.208 43.9796 12.1175 44.5 12.1175C45.0209 12.1175 45.5157 12.208 45.9715 12.3658L46.7936 11.1581C46.8946 11.0084 47.0986 10.9697 47.2481 11.0714C47.3977 11.1731 47.4361 11.3769 47.3344 11.5263L46.5807 12.6338C47.6361 13.1966 48.3688 14.1692 48.4666 15.2997ZM43.2655 13.764C43.2655 13.5217 43.0693 13.3251 42.827 13.3251C42.5841 13.3251 42.3878 13.5217 42.3878 13.764C42.3878 14.0063 42.5847 14.2028 42.827 14.2028C43.0692 14.2028 43.2655 14.0063 43.2655 13.764ZM46.6677 13.764C46.6677 13.5217 46.4708 13.3251 46.2285 13.3251C45.9856 13.3251 45.79 13.5217 45.79 13.764C45.79 14.0063 45.9856 14.2028 46.2285 14.2028C46.4708 14.2028 46.6677 14.0063 46.6677 13.764ZM50.0218 15.8972C49.5251 15.8972 49.1211 16.3068 49.1211 16.8119V20.3855C49.1211 20.8905 49.5251 21.3003 50.0218 21.3003C50.5192 21.3003 50.9213 20.8905 50.9213 20.3855V16.8119C50.9213 16.3068 50.5192 15.8972 50.0218 15.8972Z" fill="#949494" stroke="#949494" stroke-width="0.125"/>
</g>
<path d="M91.34 21.048C90.9 20.944 90.568 20.792 90.344 20.592C90.128 20.384 90.02 20.096 90.02 19.728C90.02 19.424 90.12 19.156 90.32 18.924C90.52 18.692 90.784 18.512 91.112 18.384C91.44 18.256 91.8 18.192 92.192 18.192C92.648 18.192 93.04 18.264 93.368 18.408C93.696 18.552 93.94 18.728 94.1 18.936C94.124 18.96 94.136 19 94.136 19.056C94.136 19.2 94.092 19.312 94.004 19.392C93.916 19.472 93.844 19.512 93.788 19.512C93.756 19.512 93.728 19.5 93.704 19.476C93.688 19.444 93.664 19.408 93.632 19.368C93.504 19.168 93.34 19.028 93.14 18.948C92.94 18.86 92.752 18.808 92.576 18.792C92.4 18.768 92.272 18.756 92.192 18.756C91.728 18.756 91.356 18.852 91.076 19.044C90.796 19.236 90.656 19.472 90.656 19.752C90.656 19.92 90.724 20.068 90.86 20.196C91.004 20.316 91.248 20.416 91.592 20.496L92.744 20.772C93.256 20.892 93.66 21.08 93.956 21.336C94.252 21.592 94.4 21.968 94.4 22.464C94.4 22.776 94.308 23.064 94.124 23.328C93.94 23.592 93.676 23.804 93.332 23.964C92.996 24.116 92.592 24.192 92.12 24.192C91.672 24.192 91.292 24.136 90.98 24.024C90.676 23.92 90.432 23.796 90.248 23.652C90.064 23.5 89.932 23.36 89.852 23.232C89.772 23.096 89.732 23.004 89.732 22.956C89.732 22.844 89.776 22.736 89.864 22.632C89.96 22.52 90.048 22.464 90.128 22.464C90.176 22.464 90.212 22.492 90.236 22.548C90.356 22.852 90.516 23.08 90.716 23.232C90.916 23.384 91.136 23.484 91.376 23.532C91.624 23.572 91.872 23.592 92.12 23.592C92.616 23.592 93.012 23.48 93.308 23.256C93.604 23.024 93.752 22.768 93.752 22.488C93.752 22.2 93.66 21.964 93.476 21.78C93.3 21.588 92.988 21.44 92.54 21.336L91.34 21.048ZM98.9092 22.932C99.0052 22.868 99.0812 22.836 99.1372 22.836C99.2092 22.836 99.2452 22.872 99.2452 22.944C99.2452 23.008 99.1972 23.108 99.1012 23.244C99.0052 23.38 98.8772 23.52 98.7172 23.664C98.5652 23.808 98.3932 23.932 98.2012 24.036C98.0092 24.14 97.8132 24.192 97.6132 24.192C97.1972 24.192 96.9172 24.068 96.7732 23.82C96.6292 23.564 96.5572 23.184 96.5572 22.68V18.816H96.5092C96.3332 18.824 96.1612 18.836 95.9932 18.852C95.8252 18.86 95.7412 18.864 95.7412 18.864C95.6372 18.864 95.5492 18.812 95.4772 18.708C95.4052 18.596 95.3692 18.5 95.3692 18.42C95.3692 18.34 95.4092 18.3 95.4892 18.3H96.5572V17.664C96.5572 17.584 96.5532 17.46 96.5452 17.292C96.5452 17.124 96.5412 16.952 96.5332 16.776C96.5332 16.6 96.5332 16.468 96.5332 16.38C96.5332 16.308 96.5932 16.272 96.7132 16.272C96.8172 16.272 96.9292 16.304 97.0492 16.368C97.1692 16.424 97.2292 16.5 97.2292 16.596C97.2292 16.66 97.2252 16.76 97.2172 16.896C97.2172 17.024 97.2132 17.16 97.2052 17.304C97.2052 17.448 97.2052 17.568 97.2052 17.664V18.264L97.5652 18.252C97.7092 18.244 97.8772 18.232 98.0692 18.216C98.2612 18.2 98.3972 18.188 98.4772 18.18H98.4892C98.5852 18.18 98.6692 18.232 98.7412 18.336C98.8132 18.432 98.8492 18.524 98.8492 18.612C98.8492 18.708 98.8092 18.756 98.7292 18.756C98.6492 18.756 98.4972 18.756 98.2732 18.756C98.0492 18.756 97.8572 18.76 97.6972 18.768L97.2052 18.792V22.704C97.2052 23.04 97.2372 23.264 97.3012 23.376C97.3652 23.488 97.4852 23.544 97.6612 23.544C97.8292 23.544 98.0172 23.492 98.2252 23.388C98.4332 23.284 98.6412 23.148 98.8492 22.98L98.9092 22.932ZM105.285 18.516C105.261 18.692 105.237 18.928 105.213 19.224C105.197 19.512 105.181 19.82 105.165 20.148C105.157 20.468 105.149 20.768 105.141 21.048C105.133 21.328 105.129 21.54 105.129 21.684C105.129 21.788 105.133 21.952 105.141 22.176C105.157 22.392 105.193 22.628 105.249 22.884C105.313 23.14 105.413 23.376 105.549 23.592C105.565 23.624 105.573 23.652 105.573 23.676C105.573 23.764 105.529 23.864 105.441 23.976C105.361 24.08 105.265 24.132 105.153 24.132C105.073 24.132 104.993 24.076 104.913 23.964C104.841 23.844 104.773 23.696 104.709 23.52C104.653 23.336 104.605 23.152 104.565 22.968C104.525 22.784 104.501 22.624 104.493 22.488C104.205 23.072 103.837 23.504 103.389 23.784C102.949 24.056 102.501 24.192 102.045 24.192C101.469 24.192 101.005 24 100.653 23.616C100.309 23.224 100.137 22.652 100.137 21.9C100.137 21.396 100.221 20.92 100.389 20.472C100.565 20.024 100.793 19.628 101.073 19.284C101.361 18.94 101.677 18.672 102.021 18.48C102.373 18.288 102.725 18.192 103.077 18.192C103.373 18.192 103.653 18.264 103.917 18.408C104.189 18.552 104.389 18.776 104.517 19.08C104.525 18.896 104.529 18.736 104.529 18.6C104.537 18.456 104.541 18.356 104.541 18.3C104.541 18.228 104.609 18.192 104.745 18.192C104.857 18.192 104.973 18.22 105.093 18.276C105.221 18.332 105.285 18.404 105.285 18.492V18.516ZM104.517 19.368C104.501 19.4 104.469 19.428 104.421 19.452C104.381 19.476 104.341 19.488 104.301 19.488C104.253 19.488 104.217 19.472 104.193 19.44C104.041 19.208 103.865 19.04 103.665 18.936C103.465 18.824 103.273 18.768 103.089 18.768C102.825 18.768 102.557 18.848 102.285 19.008C102.021 19.16 101.777 19.376 101.553 19.656C101.329 19.936 101.149 20.264 101.013 20.64C100.885 21.008 100.821 21.408 100.821 21.84C100.821 22.456 100.937 22.904 101.169 23.184C101.401 23.456 101.693 23.592 102.045 23.592C102.445 23.592 102.825 23.464 103.185 23.208C103.553 22.952 103.857 22.592 104.097 22.128C104.337 21.664 104.469 21.124 104.493 20.508C104.501 20.388 104.505 20.22 104.505 20.004C104.505 19.78 104.509 19.568 104.517 19.368ZM112.14 22.296C112.14 22.36 112.08 22.492 111.96 22.692C111.848 22.892 111.676 23.108 111.444 23.34C111.212 23.572 110.92 23.772 110.568 23.94C110.224 24.108 109.816 24.192 109.344 24.192C108.928 24.192 108.544 24.096 108.192 23.904C107.848 23.712 107.568 23.428 107.352 23.052C107.144 22.676 107.04 22.216 107.04 21.672C107.04 21.192 107.128 20.744 107.304 20.328C107.48 19.904 107.716 19.532 108.012 19.212C108.308 18.892 108.636 18.644 108.996 18.468C109.364 18.284 109.732 18.192 110.1 18.192C110.436 18.192 110.712 18.24 110.928 18.336C111.152 18.432 111.328 18.544 111.456 18.672C111.584 18.792 111.676 18.904 111.732 19.008C111.788 19.112 111.816 19.176 111.816 19.2C111.816 19.312 111.768 19.416 111.672 19.512C111.584 19.608 111.496 19.656 111.408 19.656C111.36 19.656 111.324 19.636 111.3 19.596C111.164 19.34 111.004 19.144 110.82 19.008C110.636 18.864 110.404 18.792 110.124 18.792C109.836 18.792 109.548 18.868 109.26 19.02C108.98 19.172 108.72 19.38 108.48 19.644C108.248 19.9 108.06 20.2 107.916 20.544C107.78 20.88 107.712 21.236 107.712 21.612C107.712 22.068 107.792 22.444 107.952 22.74C108.12 23.028 108.328 23.244 108.576 23.388C108.832 23.524 109.088 23.592 109.344 23.592C109.728 23.592 110.068 23.528 110.364 23.4C110.66 23.264 110.924 23.1 111.156 22.908C111.396 22.716 111.608 22.524 111.792 22.332C111.896 22.228 111.98 22.176 112.044 22.176C112.108 22.176 112.14 22.216 112.14 22.296ZM113.835 16.92C113.835 16.84 113.831 16.716 113.823 16.548C113.815 16.38 113.807 16.208 113.799 16.032C113.799 15.856 113.799 15.724 113.799 15.636C113.799 15.564 113.859 15.528 113.979 15.528C114.091 15.528 114.207 15.56 114.327 15.624C114.447 15.68 114.507 15.756 114.507 15.852C114.507 15.916 114.503 16.016 114.495 16.152C114.495 16.28 114.491 16.416 114.483 16.56C114.483 16.704 114.483 16.824 114.483 16.92V20.388L116.847 18.732C116.951 18.66 117.051 18.58 117.147 18.492C117.251 18.396 117.327 18.324 117.375 18.276C117.423 18.228 117.495 18.204 117.591 18.204C117.719 18.204 117.851 18.236 117.987 18.3C118.123 18.364 118.191 18.432 118.191 18.504C118.191 18.536 118.171 18.564 118.131 18.588C117.963 18.7 117.803 18.808 117.651 18.912C117.499 19.008 117.371 19.092 117.267 19.164L115.419 20.472C115.651 20.696 115.923 20.976 116.235 21.312C116.547 21.64 116.863 21.972 117.183 22.308C117.511 22.644 117.803 22.94 118.059 23.196C118.259 23.396 118.491 23.552 118.755 23.664C118.803 23.688 118.827 23.72 118.827 23.76C118.827 23.84 118.763 23.924 118.635 24.012C118.515 24.108 118.399 24.156 118.287 24.156C118.239 24.156 118.203 24.144 118.179 24.12C118.075 24.04 117.967 23.952 117.855 23.856C117.743 23.76 117.643 23.668 117.555 23.58C117.395 23.412 117.199 23.208 116.967 22.968C116.743 22.72 116.503 22.464 116.247 22.2C115.999 21.936 115.755 21.684 115.515 21.444C115.283 21.204 115.079 21 114.903 20.832L114.483 21.108V22.728C114.483 22.776 114.487 22.884 114.495 23.052C114.503 23.22 114.507 23.396 114.507 23.58C114.515 23.764 114.519 23.904 114.519 24C114.519 24.072 114.459 24.108 114.339 24.108C114.235 24.108 114.119 24.076 113.991 24.012C113.871 23.956 113.811 23.88 113.811 23.784C113.811 23.72 113.811 23.616 113.811 23.472C113.819 23.32 113.823 23.172 113.823 23.028C113.831 22.884 113.835 22.784 113.835 22.728V16.92Z" fill="white"/>
</g>
<defs>
<filter id="filter0_ddd_78_4" x="46" y="1" width="43" height="43" filterUnits="userSpaceOnUse" color-interpolation-filters="sRGB">
<feFlood flood-opacity="0" result="BackgroundImageFix"/>
<feColorMatrix in="SourceAlpha" type="matrix" values="0 0 0 0 0 0 0 0 0 0 0 0 0 0 0 0 0 0 127 0" result="hardAlpha"/>
<feOffset dy="3"/>
<feGaussianBlur stdDeviation="0.5"/>
<feComposite in2="hardAlpha" operator="out"/>
<feColorMatrix type="matrix" values="0 0 0 0 0 0 0 0 0 0 0 0 0 0 0 0 0 0 0.06 0"/>
<feBlend mode="normal" in2="BackgroundImageFix" result="effect1_dropShadow_78_4"/>
<feColorMatrix in="SourceAlpha" type="matrix" values="0 0 0 0 0 0 0 0 0 0 0 0 0 0 0 0 0 0 127 0" result="hardAlpha"/>
<feOffset dy="3"/>
<feGaussianBlur stdDeviation="4"/>
<feComposite in2="hardAlpha" operator="out"/>
<feColorMatrix type="matrix" values="0 0 0 0 0 0 0 0 0 0 0 0 0 0 0 0 0 0 0.15 0"/>
<feBlend mode="normal" in2="effect1_dropShadow_78_4" result="effect2_dropShadow_78_4"/>
<feColorMatrix in="SourceAlpha" type="matrix" values="0 0 0 0 0 0 0 0 0 0 0 0 0 0 0 0 0 0 127 0" result="hardAlpha"/>
<feMorphology radius="1" operator="dilate" in="SourceAlpha" result="effect3_dropShadow_78_4"/>
<feOffset/>
<feComposite in2="hardAlpha" operator="out"/>
<feColorMatrix type="matrix" values="0 0 0 0 0 0 0 0 0 0 0 0 0 0 0 0 0 0 0.04 0"/>
<feBlend mode="normal" in2="effect2_dropShadow_78_4" result="effect3_dropShadow_78_4"/>
<feBlend mode="normal" in="SourceGraphic" in2="effect3_dropShadow_78_4" result="shape"/>
</filter>
<clipPath id="clip0_78_4">
<rect width="118" height="39" fill="white"/>
</clipPath>
<clipPath id="clip1_78_4">
<rect x="32" y="4" width="51" height="31" rx="15.5" fill="white"/>
</clipPath>
<clipPath id="clip2_78_4">
<rect width="15" height="15" fill="white" transform="translate(60 11)"/>
</clipPath>
<clipPath id="clip3_78_4">
<rect width="15" height="15" fill="white" transform="translate(37 11)"/>
</clipPath>
</defs>
</svg>
