<svg width="118" height="39" viewBox="0 0 118 39" fill="none" xmlns="http://www.w3.org/2000/svg">
<g clip-path="url(#clip0_78_4)">
<rect x="32" y="4" width="51" height="31" rx="15.5" fill="white"/>
<g filter="url(#filter0_ddd_78_4)">
<rect x="54" y="6" width="27" height="27" rx="13.5" fill="black"/>
</g>
</g>
<path d="M6.096 16.32H6.084C6.044 16.32 5.944 16.324 5.784 16.332C5.624 16.34 5.448 16.352 5.256 16.368C5.072 16.376 4.912 16.384 4.776 16.392C4.64 16.4 4.572 16.404 4.572 16.404C4.372 16.412 4.176 16.432 3.984 16.464C3.8 16.488 3.664 16.504 3.576 16.512H3.564C3.46 16.512 3.372 16.452 3.3 16.332C3.228 16.204 3.192 16.088 3.192 15.984C3.192 15.864 3.236 15.804 3.324 15.804C3.388 15.804 3.5 15.808 3.66 15.816C3.82 15.824 3.992 15.828 4.176 15.828C4.24 15.828 4.304 15.828 4.368 15.828C4.44 15.82 4.504 15.816 4.56 15.816L8.304 15.6C8.488 15.584 8.676 15.568 8.868 15.552C9.06 15.536 9.204 15.52 9.3 15.504H9.336C9.432 15.504 9.512 15.564 9.576 15.684C9.648 15.804 9.684 15.92 9.684 16.032C9.684 16.152 9.64 16.212 9.552 16.212C9.472 16.212 9.34 16.208 9.156 16.2C8.972 16.184 8.784 16.176 8.592 16.176C8.544 16.176 8.496 16.18 8.448 16.188C8.4 16.188 8.356 16.188 8.316 16.188L6.792 16.272V22.728C6.792 22.976 6.796 23.216 6.804 23.448C6.82 23.68 6.828 23.864 6.828 24C6.828 24.04 6.808 24.068 6.768 24.084C6.728 24.108 6.68 24.12 6.624 24.12C6.512 24.12 6.392 24.088 6.264 24.024C6.136 23.968 6.072 23.888 6.072 23.784C6.072 23.688 6.076 23.54 6.084 23.34C6.092 23.132 6.096 22.924 6.096 22.716V16.32ZM10.8613 21.588V21.624C10.8613 22.28 11.0093 22.772 11.3053 23.1C11.6093 23.428 11.9653 23.592 12.3733 23.592C12.8933 23.592 13.3653 23.5 13.7893 23.316C14.2213 23.124 14.5973 22.856 14.9173 22.512C15.0133 22.408 15.0973 22.356 15.1693 22.356C15.2333 22.356 15.2653 22.396 15.2653 22.476C15.2653 22.548 15.2053 22.676 15.0853 22.86C14.9653 23.044 14.7853 23.24 14.5453 23.448C14.3133 23.648 14.0133 23.824 13.6453 23.976C13.2853 24.12 12.8613 24.192 12.3733 24.192C11.9653 24.192 11.5973 24.092 11.2693 23.892C10.9493 23.684 10.6933 23.392 10.5013 23.016C10.3093 22.632 10.2133 22.18 10.2133 21.66V21.48C10.0453 21.368 9.96131 21.248 9.96131 21.12C9.96131 21.024 10.0293 20.976 10.1653 20.976C10.1813 20.976 10.2053 20.976 10.2373 20.976C10.2773 20.968 10.2973 20.964 10.2973 20.964C10.3453 20.676 10.4533 20.372 10.6213 20.052C10.7973 19.732 11.0173 19.432 11.2813 19.152C11.5453 18.872 11.8453 18.644 12.1813 18.468C12.5173 18.284 12.8813 18.192 13.2733 18.192C13.7613 18.192 14.1493 18.276 14.4373 18.444C14.7253 18.612 14.9293 18.828 15.0493 19.092C15.1773 19.356 15.2413 19.632 15.2413 19.92C15.2413 20.152 15.2133 20.344 15.1573 20.496C15.1013 20.648 14.9893 20.78 14.8213 20.892C14.6613 20.996 14.4213 21.1 14.1013 21.204C13.7413 21.308 13.3013 21.4 12.7813 21.48C12.2613 21.552 11.6693 21.588 11.0053 21.588H10.8613ZM11.1973 21C11.8053 21 12.3213 20.968 12.7453 20.904C13.1773 20.84 13.5293 20.768 13.8013 20.688C14.0493 20.616 14.2253 20.548 14.3293 20.484C14.4413 20.42 14.5133 20.344 14.5453 20.256C14.5773 20.168 14.5933 20.052 14.5933 19.908C14.5933 19.556 14.4773 19.28 14.2453 19.08C14.0133 18.872 13.6853 18.768 13.2613 18.768C12.9653 18.768 12.6853 18.844 12.4213 18.996C12.1573 19.14 11.9213 19.328 11.7133 19.56C11.5133 19.792 11.3453 20.036 11.2093 20.292C11.0733 20.548 10.9853 20.784 10.9453 21H11.1973ZM21.7569 22.296C21.7569 22.36 21.6969 22.492 21.5769 22.692C21.4649 22.892 21.2929 23.108 21.0609 23.34C20.8289 23.572 20.5369 23.772 20.1849 23.94C19.8409 24.108 19.4329 24.192 18.9609 24.192C18.5449 24.192 18.1609 24.096 17.8089 23.904C17.4649 23.712 17.1849 23.428 16.9689 23.052C16.7609 22.676 16.6569 22.216 16.6569 21.672C16.6569 21.192 16.7449 20.744 16.9209 20.328C17.0969 19.904 17.3329 19.532 17.6289 19.212C17.9249 18.892 18.2529 18.644 18.6129 18.468C18.9809 18.284 19.3489 18.192 19.7169 18.192C20.0529 18.192 20.3289 18.24 20.5449 18.336C20.7689 18.432 20.9449 18.544 21.0729 18.672C21.2009 18.792 21.2929 18.904 21.3489 19.008C21.4049 19.112 21.4329 19.176 21.4329 19.2C21.4329 19.312 21.3849 19.416 21.2889 19.512C21.2009 19.608 21.1129 19.656 21.0249 19.656C20.9769 19.656 20.9409 19.636 20.9169 19.596C20.7809 19.34 20.6209 19.144 20.4369 19.008C20.2529 18.864 20.0209 18.792 19.7409 18.792C19.4529 18.792 19.1649 18.868 18.8769 19.02C18.5969 19.172 18.3369 19.38 18.0969 19.644C17.8649 19.9 17.6769 20.2 17.5329 20.544C17.3969 20.88 17.3289 21.236 17.3289 21.612C17.3289 22.068 17.4089 22.444 17.5689 22.74C17.7369 23.028 17.9449 23.244 18.1929 23.388C18.4489 23.524 18.7049 23.592 18.9609 23.592C19.3449 23.592 19.6849 23.528 19.9809 23.4C20.2769 23.264 20.5409 23.1 20.7729 22.908C21.0129 22.716 21.2249 22.524 21.4089 22.332C21.5129 22.228 21.5969 22.176 21.6609 22.176C21.7249 22.176 21.7569 22.216 21.7569 22.296ZM27.5802 23.796C27.5882 23.732 27.5922 23.624 27.5922 23.472C27.5922 23.32 27.5922 23.164 27.5922 23.004C27.6002 22.836 27.6042 22.708 27.6042 22.62V20.484C27.6042 20.164 27.5762 19.88 27.5202 19.632C27.4642 19.384 27.3562 19.188 27.1962 19.044C27.0442 18.9 26.8122 18.828 26.5002 18.828C26.2202 18.828 25.9322 18.888 25.6362 19.008C25.3402 19.128 25.0722 19.316 24.8322 19.572C24.5922 19.82 24.4122 20.148 24.2922 20.556C24.2362 20.756 24.1922 20.992 24.1602 21.264C24.1362 21.536 24.1202 21.804 24.1122 22.068C24.1122 22.324 24.1082 22.548 24.1002 22.74V22.932C24.1002 23.124 24.1042 23.312 24.1122 23.496C24.1202 23.68 24.1282 23.852 24.1362 24.012C24.1362 24.084 24.0762 24.12 23.9562 24.12C23.8522 24.12 23.7362 24.088 23.6082 24.024C23.4882 23.968 23.4282 23.892 23.4282 23.796C23.4282 23.732 23.4282 23.616 23.4282 23.448C23.4362 23.28 23.4402 23.116 23.4402 22.956C23.4482 22.788 23.4522 22.676 23.4522 22.62V16.92C23.4522 16.84 23.4482 16.716 23.4402 16.548C23.4322 16.38 23.4242 16.208 23.4162 16.032C23.4162 15.856 23.4162 15.724 23.4162 15.636C23.4162 15.564 23.4762 15.528 23.5962 15.528C23.7082 15.528 23.8242 15.56 23.9442 15.624C24.0642 15.68 24.1242 15.756 24.1242 15.852C24.1242 15.916 24.1202 16.024 24.1122 16.176C24.1122 16.328 24.1082 16.488 24.1002 16.656C24.1002 16.816 24.1002 16.944 24.1002 17.04V19.704C24.2602 19.376 24.4722 19.104 24.7362 18.888C25.0002 18.664 25.2842 18.496 25.5882 18.384C25.9002 18.264 26.2042 18.204 26.5002 18.204C26.8842 18.204 27.1922 18.276 27.4242 18.42C27.6562 18.556 27.8322 18.736 27.9522 18.96C28.0722 19.184 28.1522 19.428 28.1922 19.692C28.2322 19.948 28.2522 20.196 28.2522 20.436V22.74C28.2522 22.788 28.2562 22.896 28.2642 23.064C28.2722 23.232 28.2762 23.408 28.2762 23.592C28.2842 23.776 28.2882 23.916 28.2882 24.012C28.2882 24.084 28.2242 24.12 28.0962 24.12C27.9922 24.12 27.8802 24.088 27.7602 24.024C27.6402 23.968 27.5802 23.896 27.5802 23.808V23.796Z" fill="white"/>
<g clip-path="url(#clip1_78_4)">
<path d="M71.5416 8C71.5904 8 71.6393 8 71.6909 8C71.8108 9.48096 71.2455 10.5875 70.5585 11.3889C69.8845 12.1847 68.9614 12.9565 67.4684 12.8394C67.3689 11.3797 67.935 10.3552 68.6211 9.55566C69.2574 8.81057 70.4239 8.14754 71.5416 8Z" fill="white"/>
<path d="M76.061 23.4146C76.061 23.4293 76.061 23.4422 76.061 23.4561C75.6414 24.7268 75.0429 25.8158 74.3126 26.8265C73.6459 27.744 72.8288 28.9788 71.37 28.9788C70.1094 28.9788 69.2721 28.1682 67.9802 28.1461C66.6136 28.124 65.862 28.8239 64.6125 29C64.4696 29 64.3267 29 64.1865 29C63.269 28.8672 62.5285 28.1406 61.989 27.4858C60.3983 25.5512 59.1691 23.0522 58.9404 19.8542C58.9404 19.5406 58.9404 19.228 58.9404 18.9145C59.0373 16.6258 60.1494 14.7649 61.6276 13.863C62.4077 13.3835 63.4801 12.975 64.6743 13.1576C65.1861 13.2369 65.709 13.4121 66.1673 13.5854C66.6016 13.7523 67.1447 14.0484 67.6593 14.0327C68.0079 14.0225 68.3546 13.8409 68.7059 13.7127C69.7351 13.3411 70.7439 12.915 72.0736 13.1151C73.6717 13.3567 74.8059 14.0668 75.5068 15.1623C74.1549 16.0227 73.0861 17.3192 73.2687 19.5333C73.431 21.5445 74.6003 22.7211 76.061 23.4146Z" fill="white"/>
</g>
<g clip-path="url(#clip2_78_4)">
<path d="M39.2401 15.9414H48.76V23.6991C48.76 24.16 48.3864 24.5336 47.9261 24.5336H46.9725V26.8962C46.9725 27.4962 46.494 27.9824 45.9032 27.9824C45.311 27.9824 44.8331 27.4962 44.8331 26.8962V24.5336H43.1678V26.8962C43.1678 27.4962 42.6883 27.9824 42.0976 27.9824C41.507 27.9824 41.0275 27.4962 41.0275 26.8962V24.5336H40.0748C39.6144 24.5336 39.2401 24.16 39.2401 23.6991L39.2401 15.9414ZM37.3745 15.8781C36.7778 15.8781 36.2944 16.369 36.2944 16.975V21.2618C36.2944 21.8671 36.7778 22.3588 37.3745 22.3588C37.9714 22.3588 38.4546 21.8671 38.4546 21.2618V16.975C38.4546 16.369 37.9714 15.8781 37.3745 15.8781ZM48.76 15.1597H39.2401C39.3576 13.8034 40.2374 12.6363 41.5039 11.9605L40.5988 10.6315C40.4767 10.4523 40.5227 10.2077 40.7023 10.0857C40.8817 9.96366 41.1257 10.0101 41.2484 10.1892L42.2349 11.6387C42.7819 11.4496 43.3756 11.341 44.0001 11.341C44.6252 11.341 45.219 11.4496 45.7659 11.639L46.7524 10.1897C46.8736 10.0101 47.1184 9.9637 47.2978 10.0857C47.4774 10.2078 47.5234 10.4523 47.4013 10.6315L46.497 11.9606C47.7634 12.6359 48.6426 13.803 48.76 15.1597ZM42.5187 13.3168C42.5187 13.026 42.2832 12.7901 41.9925 12.7901C41.701 12.7901 41.4655 13.026 41.4655 13.3168C41.4655 13.6075 41.7018 13.8433 41.9925 13.8433C42.2832 13.8433 42.5187 13.6075 42.5187 13.3168ZM46.6013 13.3168C46.6013 13.026 46.365 12.7901 46.0743 12.7901C45.7829 12.7901 45.5481 13.026 45.5481 13.3168C45.5481 13.6075 45.7829 13.8433 46.0743 13.8433C46.365 13.8433 46.6013 13.6075 46.6013 13.3168ZM50.6263 15.8766C50.0302 15.8766 49.5455 16.3682 49.5455 16.9742V21.2626C49.5455 21.8686 50.0302 22.3604 50.6263 22.3604C51.2232 22.3604 51.7056 21.8687 51.7056 21.2626V16.9742C51.7057 16.3682 51.2232 15.8766 50.6263 15.8766Z" fill="#949494" stroke="#949494" stroke-width="0.125"/>
</g>
<path d="M87.34 21.048C86.9 20.944 86.568 20.792 86.344 20.592C86.128 20.384 86.02 20.096 86.02 19.728C86.02 19.424 86.12 19.156 86.32 18.924C86.52 18.692 86.784 18.512 87.112 18.384C87.44 18.256 87.8 18.192 88.192 18.192C88.648 18.192 89.04 18.264 89.368 18.408C89.696 18.552 89.94 18.728 90.1 18.936C90.124 18.96 90.136 19 90.136 19.056C90.136 19.2 90.092 19.312 90.004 19.392C89.916 19.472 89.844 19.512 89.788 19.512C89.756 19.512 89.728 19.5 89.704 19.476C89.688 19.444 89.664 19.408 89.632 19.368C89.504 19.168 89.34 19.028 89.14 18.948C88.94 18.86 88.752 18.808 88.576 18.792C88.4 18.768 88.272 18.756 88.192 18.756C87.728 18.756 87.356 18.852 87.076 19.044C86.796 19.236 86.656 19.472 86.656 19.752C86.656 19.92 86.724 20.068 86.86 20.196C87.004 20.316 87.248 20.416 87.592 20.496L88.744 20.772C89.256 20.892 89.66 21.08 89.956 21.336C90.252 21.592 90.4 21.968 90.4 22.464C90.4 22.776 90.308 23.064 90.124 23.328C89.94 23.592 89.676 23.804 89.332 23.964C88.996 24.116 88.592 24.192 88.12 24.192C87.672 24.192 87.292 24.136 86.98 24.024C86.676 23.92 86.432 23.796 86.248 23.652C86.064 23.5 85.932 23.36 85.852 23.232C85.772 23.096 85.732 23.004 85.732 22.956C85.732 22.844 85.776 22.736 85.864 22.632C85.96 22.52 86.048 22.464 86.128 22.464C86.176 22.464 86.212 22.492 86.236 22.548C86.356 22.852 86.516 23.08 86.716 23.232C86.916 23.384 87.136 23.484 87.376 23.532C87.624 23.572 87.872 23.592 88.12 23.592C88.616 23.592 89.012 23.48 89.308 23.256C89.604 23.024 89.752 22.768 89.752 22.488C89.752 22.2 89.66 21.964 89.476 21.78C89.3 21.588 88.988 21.44 88.54 21.336L87.34 21.048ZM94.9092 22.932C95.0052 22.868 95.0812 22.836 95.1372 22.836C95.2092 22.836 95.2452 22.872 95.2452 22.944C95.2452 23.008 95.1972 23.108 95.1012 23.244C95.0052 23.38 94.8772 23.52 94.7172 23.664C94.5652 23.808 94.3932 23.932 94.2012 24.036C94.0092 24.14 93.8132 24.192 93.6132 24.192C93.1972 24.192 92.9172 24.068 92.7732 23.82C92.6292 23.564 92.5572 23.184 92.5572 22.68V18.816H92.5092C92.3332 18.824 92.1612 18.836 91.9932 18.852C91.8252 18.86 91.7412 18.864 91.7412 18.864C91.6372 18.864 91.5492 18.812 91.4772 18.708C91.4052 18.596 91.3692 18.5 91.3692 18.42C91.3692 18.34 91.4092 18.3 91.4892 18.3H92.5572V17.664C92.5572 17.584 92.5532 17.46 92.5452 17.292C92.5452 17.124 92.5412 16.952 92.5332 16.776C92.5332 16.6 92.5332 16.468 92.5332 16.38C92.5332 16.308 92.5932 16.272 92.7132 16.272C92.8172 16.272 92.9292 16.304 93.0492 16.368C93.1692 16.424 93.2292 16.5 93.2292 16.596C93.2292 16.66 93.2252 16.76 93.2172 16.896C93.2172 17.024 93.2132 17.16 93.2052 17.304C93.2052 17.448 93.2052 17.568 93.2052 17.664V18.264L93.5652 18.252C93.7092 18.244 93.8772 18.232 94.0692 18.216C94.2612 18.2 94.3972 18.188 94.4772 18.18H94.4892C94.5852 18.18 94.6692 18.232 94.7412 18.336C94.8132 18.432 94.8492 18.524 94.8492 18.612C94.8492 18.708 94.8092 18.756 94.7292 18.756C94.6492 18.756 94.4972 18.756 94.2732 18.756C94.0492 18.756 93.8572 18.76 93.6972 18.768L93.2052 18.792V22.704C93.2052 23.04 93.2372 23.264 93.3012 23.376C93.3652 23.488 93.4852 23.544 93.6612 23.544C93.8292 23.544 94.0172 23.492 94.2252 23.388C94.4332 23.284 94.6412 23.148 94.8492 22.98L94.9092 22.932ZM101.285 18.516C101.261 18.692 101.237 18.928 101.213 19.224C101.197 19.512 101.181 19.82 101.165 20.148C101.157 20.468 101.149 20.768 101.141 21.048C101.133 21.328 101.129 21.54 101.129 21.684C101.129 21.788 101.133 21.952 101.141 22.176C101.157 22.392 101.193 22.628 101.249 22.884C101.313 23.14 101.413 23.376 101.549 23.592C101.565 23.624 101.573 23.652 101.573 23.676C101.573 23.764 101.529 23.864 101.441 23.976C101.361 24.08 101.265 24.132 101.153 24.132C101.073 24.132 100.993 24.076 100.913 23.964C100.841 23.844 100.773 23.696 100.709 23.52C100.653 23.336 100.605 23.152 100.565 22.968C100.525 22.784 100.501 22.624 100.493 22.488C100.205 23.072 99.8374 23.504 99.3894 23.784C98.9494 24.056 98.5014 24.192 98.0454 24.192C97.4694 24.192 97.0054 24 96.6534 23.616C96.3094 23.224 96.1374 22.652 96.1374 21.9C96.1374 21.396 96.2214 20.92 96.3894 20.472C96.5654 20.024 96.7934 19.628 97.0734 19.284C97.3614 18.94 97.6774 18.672 98.0214 18.48C98.3734 18.288 98.7254 18.192 99.0774 18.192C99.3734 18.192 99.6534 18.264 99.9174 18.408C100.189 18.552 100.389 18.776 100.517 19.08C100.525 18.896 100.529 18.736 100.529 18.6C100.537 18.456 100.541 18.356 100.541 18.3C100.541 18.228 100.609 18.192 100.745 18.192C100.857 18.192 100.973 18.22 101.093 18.276C101.221 18.332 101.285 18.404 101.285 18.492V18.516ZM100.517 19.368C100.501 19.4 100.469 19.428 100.421 19.452C100.381 19.476 100.341 19.488 100.301 19.488C100.253 19.488 100.217 19.472 100.193 19.44C100.041 19.208 99.8654 19.04 99.6654 18.936C99.4654 18.824 99.2734 18.768 99.0894 18.768C98.8254 18.768 98.5574 18.848 98.2854 19.008C98.0214 19.16 97.7774 19.376 97.5534 19.656C97.3294 19.936 97.1494 20.264 97.0134 20.64C96.8854 21.008 96.8214 21.408 96.8214 21.84C96.8214 22.456 96.9374 22.904 97.1694 23.184C97.4014 23.456 97.6934 23.592 98.0454 23.592C98.4454 23.592 98.8254 23.464 99.1854 23.208C99.5534 22.952 99.8574 22.592 100.097 22.128C100.337 21.664 100.469 21.124 100.493 20.508C100.501 20.388 100.505 20.22 100.505 20.004C100.505 19.78 100.509 19.568 100.517 19.368ZM108.14 22.296C108.14 22.36 108.08 22.492 107.96 22.692C107.848 22.892 107.676 23.108 107.444 23.34C107.212 23.572 106.92 23.772 106.568 23.94C106.224 24.108 105.816 24.192 105.344 24.192C104.928 24.192 104.544 24.096 104.192 23.904C103.848 23.712 103.568 23.428 103.352 23.052C103.144 22.676 103.04 22.216 103.04 21.672C103.04 21.192 103.128 20.744 103.304 20.328C103.48 19.904 103.716 19.532 104.012 19.212C104.308 18.892 104.636 18.644 104.996 18.468C105.364 18.284 105.732 18.192 106.1 18.192C106.436 18.192 106.712 18.24 106.928 18.336C107.152 18.432 107.328 18.544 107.456 18.672C107.584 18.792 107.676 18.904 107.732 19.008C107.788 19.112 107.816 19.176 107.816 19.2C107.816 19.312 107.768 19.416 107.672 19.512C107.584 19.608 107.496 19.656 107.408 19.656C107.36 19.656 107.324 19.636 107.3 19.596C107.164 19.34 107.004 19.144 106.82 19.008C106.636 18.864 106.404 18.792 106.124 18.792C105.836 18.792 105.548 18.868 105.26 19.02C104.98 19.172 104.72 19.38 104.48 19.644C104.248 19.9 104.06 20.2 103.916 20.544C103.78 20.88 103.712 21.236 103.712 21.612C103.712 22.068 103.792 22.444 103.952 22.74C104.12 23.028 104.328 23.244 104.576 23.388C104.832 23.524 105.088 23.592 105.344 23.592C105.728 23.592 106.068 23.528 106.364 23.4C106.66 23.264 106.924 23.1 107.156 22.908C107.396 22.716 107.608 22.524 107.792 22.332C107.896 22.228 107.98 22.176 108.044 22.176C108.108 22.176 108.14 22.216 108.14 22.296ZM109.835 16.92C109.835 16.84 109.831 16.716 109.823 16.548C109.815 16.38 109.807 16.208 109.799 16.032C109.799 15.856 109.799 15.724 109.799 15.636C109.799 15.564 109.859 15.528 109.979 15.528C110.091 15.528 110.207 15.56 110.327 15.624C110.447 15.68 110.507 15.756 110.507 15.852C110.507 15.916 110.503 16.016 110.495 16.152C110.495 16.28 110.491 16.416 110.483 16.56C110.483 16.704 110.483 16.824 110.483 16.92V20.388L112.847 18.732C112.951 18.66 113.051 18.58 113.147 18.492C113.251 18.396 113.327 18.324 113.375 18.276C113.423 18.228 113.495 18.204 113.591 18.204C113.719 18.204 113.851 18.236 113.987 18.3C114.123 18.364 114.191 18.432 114.191 18.504C114.191 18.536 114.171 18.564 114.131 18.588C113.963 18.7 113.803 18.808 113.651 18.912C113.499 19.008 113.371 19.092 113.267 19.164L111.419 20.472C111.651 20.696 111.923 20.976 112.235 21.312C112.547 21.64 112.863 21.972 113.183 22.308C113.511 22.644 113.803 22.94 114.059 23.196C114.259 23.396 114.491 23.552 114.755 23.664C114.803 23.688 114.827 23.72 114.827 23.76C114.827 23.84 114.763 23.924 114.635 24.012C114.515 24.108 114.399 24.156 114.287 24.156C114.239 24.156 114.203 24.144 114.179 24.12C114.075 24.04 113.967 23.952 113.855 23.856C113.743 23.76 113.643 23.668 113.555 23.58C113.395 23.412 113.199 23.208 112.967 22.968C112.743 22.72 112.503 22.464 112.247 22.2C111.999 21.936 111.755 21.684 111.515 21.444C111.283 21.204 111.079 21 110.903 20.832L110.483 21.108V22.728C110.483 22.776 110.487 22.884 110.495 23.052C110.503 23.22 110.507 23.396 110.507 23.58C110.515 23.764 110.519 23.904 110.519 24C110.519 24.072 110.459 24.108 110.339 24.108C110.235 24.108 110.119 24.076 109.991 24.012C109.871 23.956 109.811 23.88 109.811 23.784C109.811 23.72 109.811 23.616 109.811 23.472C109.819 23.32 109.823 23.172 109.823 23.028C109.831 22.884 109.835 22.784 109.835 22.728V16.92Z" fill="white"/>
<defs>
<filter id="filter0_ddd_78_4" x="46" y="1" width="43" height="43" filterUnits="userSpaceOnUse" color-interpolation-filters="sRGB">
<feFlood flood-opacity="0" result="BackgroundImageFix"/>
<feColorMatrix in="SourceAlpha" type="matrix" values="0 0 0 0 0 0 0 0 0 0 0 0 0 0 0 0 0 0 127 0" result="hardAlpha"/>
<feOffset dy="3"/>
<feGaussianBlur stdDeviation="0.5"/>
<feComposite in2="hardAlpha" operator="out"/>
<feColorMatrix type="matrix" values="0 0 0 0 0 0 0 0 0 0 0 0 0 0 0 0 0 0 0.06 0"/>
<feBlend mode="normal" in2="BackgroundImageFix" result="effect1_dropShadow_78_4"/>
<feColorMatrix in="SourceAlpha" type="matrix" values="0 0 0 0 0 0 0 0 0 0 0 0 0 0 0 0 0 0 127 0" result="hardAlpha"/>
<feOffset dy="3"/>
<feGaussianBlur stdDeviation="4"/>
<feComposite in2="hardAlpha" operator="out"/>
<feColorMatrix type="matrix" values="0 0 0 0 0 0 0 0 0 0 0 0 0 0 0 0 0 0 0.15 0"/>
<feBlend mode="normal" in2="effect1_dropShadow_78_4" result="effect2_dropShadow_78_4"/>
<feColorMatrix in="SourceAlpha" type="matrix" values="0 0 0 0 0 0 0 0 0 0 0 0 0 0 0 0 0 0 127 0" result="hardAlpha"/>
<feMorphology radius="1" operator="dilate" in="SourceAlpha" result="effect3_dropShadow_78_4"/>
<feOffset/>
<feComposite in2="hardAlpha" operator="out"/>
<feColorMatrix type="matrix" values="0 0 0 0 0 0 0 0 0 0 0 0 0 0 0 0 0 0 0.04 0"/>
<feBlend mode="normal" in2="effect2_dropShadow_78_4" result="effect3_dropShadow_78_4"/>
<feBlend mode="normal" in="SourceGraphic" in2="effect3_dropShadow_78_4" result="shape"/>
</filter>
<clipPath id="clip0_78_4">
<rect x="32" y="4" width="51" height="31" rx="15.5" fill="white"/>
</clipPath>
<clipPath id="clip1_78_4">
<rect width="21" height="21" fill="white" transform="translate(57 8)"/>
</clipPath>
<clipPath id="clip2_78_4">
<rect width="18" height="18" fill="white" transform="translate(35 10)"/>
</clipPath>
</defs>
</svg>
